PathFileType	4	(X/Y/Z)	C:/ViconProjects/foot_20160225/trc/2_test02_dynamic.trc
DataRate	CameraRate	NumFrames	NumMarkers	Units	OrigDataRate	OrigDataStartFrame	OrigNumFrames
120.000000	120.000000	6	39	mm	120.000000	1	406
Frame#	Time	LFWT			RFWT			VBWT			LKNE			LANK			LMT5			LMT1			LHEL			LTOE			RKNE			RANK			RMT5			RMT1			RHEL			RTOE			T10			FHEAD			THEAD			RHEAD			LBSH			LELB			LOWR			RBSH			RELB			ROWR			LTHI			RTHI			LSHAN			RSHAN			LIHEL			LOHEL			RIHEL			ROHEL			LMT3			LNAVI			LCUNE			RMT3			RNAVI			RCUNE			
		X0	Y0	Z0	X1	Y1	Z1	X2	Y2	Z2	X3	Y3	Z3	X4	Y4	Z4	X5	Y5	Z5	X6	Y6	Z6	X7	Y7	Z7	X8	Y8	Z8	X9	Y9	Z9	X10	Y10	Z10	X11	Y11	Z11	X12	Y12	Z12	X13	Y13	Z13	X14	Y14	Z14	X15	Y15	Z15	X16	Y16	Z16	X17	Y17	Z17	X18	Y18	Z18	X19	Y19	Z19	X20	Y20	Z20	X21	Y21	Z21	X22	Y22	Z22	X23	Y23	Z23	X24	Y24	Z24	X25	Y25	Z25	X26	Y26	Z26	X27	Y27	Z27	X28	Y28	Z28	X29	Y29	Z29	X30	Y30	Z30	X31	Y31	Z31	X32	Y32	Z32	X33	Y33	Z33	X34	Y34	Z34	X35	Y35	Z35	X36	Y36	Z36	X37	Y37	Z37	X38	Y38	Z38	
1	0.008333	2010.676025	-21.767839	897.087219	2015.315796	265.340240	912.872131	2239.797119	128.645691	913.730530	2220.732666	-25.826490	439.628632	2450.499268	-15.303300	96.716133	2365.209961	-42.855450	43.934700	2310.849609	28.239519	48.268909	2517.248291	41.917931	97.363007	2276.942627	12.695680	39.226440	1890.945679	295.379395	478.959320	1868.632813	308.771881	76.988609	1758.132324	323.830017	57.590500	1717.080566	250.548370	77.810966	1927.804688	250.534195	39.950481	1679.137817	268.874115	82.943817	2177.781738	47.252399	1250.503296	1848.198608	163.324936	1578.491089	1952.310059	164.592026	1672.310669	2066.702881	154.311844	1614.317749	1978.246094	-57.471722	1375.585449	1925.159302	-164.762070	1059.905518	1731.770264	-81.723053	910.263000	2070.690186	339.144745	1370.059937	2243.685791	412.630707	1095.945923	2265.720215	454.618225	837.392151	2067.902832	21.821280	561.207581	1863.952881	235.102554	605.305237	2269.323730	48.497200	304.990295	1845.445313	228.251221	249.442062	2480.697510	73.281433	87.282967	2492.046875	1.588590	88.032852	1888.148315	217.653137	48.139420	1898.634766	291.329224	45.832008	2323.045898	-10.458900	44.592411	2398.050781	70.619453	69.965446	2424.618408	-28.250771	50.150589	1725.789063	285.753784	71.516586	1815.960693	218.262527	72.947281	1819.857422	315.070618	48.256851
2	0.016667	2001.794800	-18.608919	897.470703	2006.822754	268.384979	914.128662	2230.489014	130.992920	914.080017	2211.464355	-24.897449	440.103241	2447.502197	-15.901990	100.179367	2364.793457	-43.159538	43.303600	2310.453369	27.974489	48.354721	2514.467529	41.451248	103.907249	2276.626221	12.705820	39.109219	1882.009644	296.110229	479.375977	1866.075195	309.086639	77.935623	1756.414917	326.115936	55.206619	1716.365479	252.998566	76.356148	1925.761353	250.618240	39.961891	1678.068726	270.072906	79.227867	2169.183594	49.929520	1250.967529	1838.875488	165.466202	1579.005737	1943.517334	167.174042	1672.701782	2057.867920	156.722473	1614.754028	1969.569214	-55.821171	1376.004517	1917.616211	-162.817459	1059.843384	1724.370972	-80.716171	909.837708	2061.614990	341.416504	1370.559692	2234.451416	414.145477	1096.129883	2257.302734	455.218536	836.905823	2058.000732	22.777000	560.954163	1855.611328	235.904709	608.216309	2262.384277	48.243351	306.010681	1840.325562	229.448975	249.845566	2478.099121	71.864128	92.158836	2489.665039	1.142820	93.425293	1886.844849	219.120316	49.498451	1897.178101	291.465088	46.166039	2322.582031	-10.634670	44.676559	2396.664795	70.330437	73.117188	2423.478760	-28.341280	53.124489	1724.142456	287.961975	69.596031	1813.869751	219.008911	72.124184	1819.171753	315.932953	47.362221
3	0.025000	1992.013062	-15.639710	897.544678	1997.040894	270.734497	915.451233	2220.936035	133.281113	914.753967	2201.962646	-24.979521	440.335632	2444.829590	-16.541410	105.093849	2363.712158	-43.387772	43.446869	2310.108643	27.640030	48.155491	2511.038086	40.924370	110.779121	2276.401611	12.602030	39.018520	1873.661987	297.297211	479.713501	1861.838745	309.944824	77.527710	1755.821411	327.041870	53.130669	1713.760132	255.097748	73.307793	1924.075562	251.130402	40.272579	1675.935669	272.159729	75.326042	2160.239014	52.578758	1251.455078	1830.274902	167.728165	1579.518677	1934.602173	169.239532	1673.300171	2048.640869	159.253464	1615.582520	1961.296265	-53.605289	1376.390991	1910.555786	-160.736252	1060.379761	1718.349976	-79.922836	908.458740	2052.759033	344.329987	1371.041504	2224.707764	416.113678	1095.768066	2247.821045	456.162659	836.406738	2047.700073	24.811069	561.520752	1846.964233	236.722290	611.106384	2255.212891	48.317108	306.618439	1835.624878	229.788895	248.961563	2474.927002	71.506706	98.215332	2486.857910	0.136630	99.513870	1884.669678	218.261948	48.077209	1896.067993	292.061707	46.607891	2322.092773	-10.746860	44.694359	2394.317383	69.824837	76.462410	2421.592285	-29.333570	55.552219	1722.285034	289.844543	66.857758	1811.107788	219.583374	70.224907	1818.676880	316.719086	46.318741
4	0.033333	1982.315186	-12.582560	898.017639	1987.185669	273.820892	917.952209	2211.517090	135.389221	915.809326	2190.983154	-24.655291	440.496796	2441.560547	-17.119150	110.586853	2362.923584	-43.085812	44.185570	2309.354492	27.370781	48.065948	2507.298584	40.315430	118.761269	2276.229004	12.631100	38.947239	1866.652710	298.856079	479.978943	1860.677002	310.152985	76.324318	1754.677368	328.227875	49.975151	1711.867432	256.498535	69.852417	1924.691895	249.222397	43.449379	1674.314209	275.216614	72.460838	2151.303955	55.148769	1252.416382	1820.360840	169.595367	1580.534912	1925.511841	171.526749	1674.670776	2039.504761	161.581345	1616.735352	1951.927368	-50.890091	1377.318115	1903.617676	-158.858749	1061.009521	1712.726929	-79.070824	907.034363	2043.522827	346.683167	1372.170898	2214.785645	418.187195	1095.651489	2237.672852	456.759918	836.328735	2037.141846	26.037380	562.158813	1839.333252	238.153793	613.278381	2246.702881	47.462059	307.122894	1831.309448	231.124893	248.605301	2471.347900	71.415466	105.642639	2483.386719	-0.181820	105.970192	1883.545898	220.027618	49.466331	1895.421753	292.125000	46.586761	2321.452881	-10.907150	44.722561	2391.647949	69.434357	79.667412	2419.839111	-29.332800	59.475380	1720.735596	291.587830	63.408661	1809.080933	220.580765	69.067047	1817.754028	317.499969	44.434978
5	0.041667	1973.124023	-10.157210	899.229065	1977.995483	276.828888	919.809998	2201.808838	137.454880	917.100891	2179.178467	-24.299681	440.404846	2437.394287	-17.646111	116.386330	2362.073486	-43.051849	45.061852	2308.307861	27.184490	47.980900	2501.416260	39.363861	126.726639	2276.070313	12.691810	38.912060	1859.666382	300.468994	478.886749	1858.553101	309.584412	73.340858	1754.192261	330.329224	47.694561	1710.291016	257.954590	66.696457	1923.915649	249.437988	44.141319	1673.312866	274.958954	67.179527	2142.133301	57.488911	1253.630615	1811.445190	172.231995	1581.675293	1916.078125	173.490463	1675.586792	2030.252075	163.680115	1618.114868	1943.196655	-48.731819	1378.567749	1897.138062	-157.409119	1061.952148	1706.630371	-78.542992	906.156616	2034.579102	349.415100	1373.452393	2204.640869	420.159729	1096.036499	2227.575195	458.038391	836.423950	2025.895020	27.678089	563.602600	1832.003662	240.260376	613.797485	2238.092773	47.803940	307.850616	1827.360596	232.202881	246.624100	2466.315430	70.499710	111.771339	2477.281494	0.994720	112.655449	1882.366333	219.558014	48.435181	1894.647339	292.905212	46.672161	2320.691162	-11.152450	44.832840	2387.949219	68.560081	83.393951	2417.587646	-29.615120	63.162571	1719.669434	292.479431	59.995659	1807.578369	221.289078	67.537300	1817.538208	317.921112	43.222580
6	0.050000	1963.176514	-6.502190	900.745972	1968.721191	279.923065	922.242859	2192.031494	139.793259	918.626221	2166.436035	-24.651569	440.842896	2432.400146	-18.199249	122.522148	2360.703125	-42.761330	46.116119	2307.614990	27.288179	47.650230	2495.684814	39.758221	135.710648	2275.927734	12.755690	38.734470	1854.985352	302.747833	477.777893	1855.001465	308.028473	68.895088	1753.549927	332.115692	45.204472	1709.065308	258.507294	63.078400	1923.209961	249.610825	44.844910	1672.530640	275.831879	63.310749	2132.984131	59.773949	1255.145752	1803.344971	174.388550	1582.530273	1906.906738	176.284943	1677.430786	2021.316528	166.282867	1619.851685	1933.777954	-45.675350	1379.937500	1890.609619	-155.231491	1063.367676	1701.771606	-78.369781	904.644958	2025.150391	351.863617	1375.077759	2194.210938	422.684723	1096.570557	2216.151367	458.951141	836.593689	2014.502930	29.399830	564.457703	1824.785645	243.302734	612.775757	2227.549316	46.733540	308.830444	1823.795532	233.409286	245.660568	2460.719482	69.882240	119.661842	2473.404785	0.099980	120.286110	1881.630371	219.911163	48.233871	1893.971680	293.558685	46.677200	2319.845215	-11.370570	44.709290	2383.376465	67.449318	87.902802	2415.140137	-30.526320	67.708214	1718.387939	293.330963	57.188770	1806.547485	221.744690	66.071571	1817.220215	318.642395	41.272869
